<svg width="42" height="32" viewBox="0 0 42 32" fill="none" xmlns="http://www.w3.org/2000/svg">
    <path d="M7.937 7.53489C4.82617 11.1808 4.37732 14.8554 5.29134 17.4264C8.74555 14.8544 13.5461 15.393 16.4693 17.9535C19.4222 20.54 19.6763 25.0867 17.7921 28.031C16.2072 30.5078 13.4238 32 10.3181 32C3.2502 32 0 26.1551 0 19.5969C0 15.3385 1.15747 11.5246 3.47243 8.15505C5.78739 4.78554 9.28187 2.0672 13.9559 0L15.2126 2.29459C12.3906 3.41086 9.96537 5.15763 7.937 7.53489ZM30.9543 7.53489C27.8435 11.1808 27.3947 14.8554 28.3087 17.4264C29.852 16.3101 31.5276 15.7519 33.3355 15.7519C38.091 15.7519 42 18.7216 42 23.876C42 28.6156 38.1206 32 33.3354 32C26.2675 32 23.0173 26.1551 23.0173 19.5969C23.0173 15.3385 24.1748 11.5246 26.4897 8.15505C28.8047 4.78554 32.2992 2.0672 36.9732 0L38.2299 2.29456C35.4079 3.41086 32.9827 5.15763 30.9543 7.53489Z" fill="#12588B"/>
</svg>
